<svg width="40" height="30" xmlns="http://www.w3.org/2000/svg"><path d="M36 0a4 4 0 0 1 4 4v22a4 4 0 0 1-4 4H4a4 4 0 0 1-4-4V4a4 4 0 0 1 4-4h32Zm-6.586 15.59a1 1 0 0 0-1.324.496C26.59 19.387 23.95 21 20 21s-6.59-1.613-8.09-4.914a1 1 0 1 0-1.82.828C11.923 20.946 15.283 23 20 23c4.717 0 8.077-2.054 9.91-6.086a1 1 0 0 0-.496-1.324ZM15 8a1 1 0 0 0-1 1v3l.007.117A1 1 0 0 0 16 12V9l-.007-.117A1 1 0 0 0 15 8Zm10 0a1 1 0 0 0-1 1v3l.007.117A1 1 0 0 0 26 12V9l-.007-.117A1 1 0 0 0 25 8Z" fill="#fff" fill-rule="evenodd"/></svg>